<svg width="225" height="105" viewBox="0 0 225 105" fill="none" xmlns="http://www.w3.org/2000/svg">
<circle cx="2.5" cy="2.5" r="2.5" fill="white"/>
<circle cx="22.5" cy="2.5" r="2.5" fill="white"/>
<circle cx="42.5" cy="2.5" r="2.5" fill="white"/>
<circle cx="62.5" cy="2.5" r="2.5" fill="white"/>
<circle cx="82.5" cy="2.5" r="2.5" fill="white"/>
<circle cx="102.5" cy="2.5" r="2.5" fill="white"/>
<circle cx="122.5" cy="2.5" r="2.5" fill="white"/>
<circle cx="142.5" cy="2.5" r="2.5" fill="white"/>
<circle cx="162.5" cy="2.5" r="2.5" fill="white"/>
<circle cx="182.5" cy="2.49998" r="2.5" fill="white"/>
<circle cx="2.5" cy="27.5" r="2.5" fill="white"/>
<circle cx="22.5" cy="27.5" r="2.5" fill="white"/>
<circle cx="42.5" cy="27.5" r="2.5" fill="white"/>
<circle cx="62.5" cy="27.5" r="2.5" fill="white"/>
<circle cx="82.5" cy="27.5" r="2.5" fill="white"/>
<circle cx="102.5" cy="27.5" r="2.5" fill="white"/>
<circle cx="122.5" cy="27.5" r="2.5" fill="white"/>
<circle cx="142.5" cy="27.5" r="2.5" fill="white"/>
<circle cx="162.5" cy="27.5" r="2.5" fill="white"/>
<circle cx="182.5" cy="27.5" r="2.5" fill="white"/>
<circle cx="2.5" cy="52.5" r="2.5" fill="white"/>
<circle cx="22.5" cy="52.5" r="2.5" fill="white"/>
<circle cx="42.5" cy="52.5" r="2.5" fill="white"/>
<circle cx="62.5" cy="52.5" r="2.5" fill="white"/>
<circle cx="82.5" cy="52.5" r="2.5" fill="white"/>
<circle cx="102.5" cy="52.5" r="2.5" fill="white"/>
<circle cx="122.5" cy="52.5" r="2.5" fill="white"/>
<circle cx="142.5" cy="52.5" r="2.5" fill="white"/>
<circle cx="162.5" cy="52.5" r="2.5" fill="white"/>
<circle cx="182.5" cy="52.5" r="2.5" fill="white"/>
<circle cx="2.5" cy="77.5" r="2.5" fill="white"/>
<circle cx="22.5" cy="77.5" r="2.5" fill="white"/>
<circle cx="42.5" cy="77.5" r="2.5" fill="white"/>
<circle cx="62.5" cy="77.5" r="2.5" fill="white"/>
<circle cx="82.5" cy="77.5" r="2.5" fill="white"/>
<circle cx="102.5" cy="77.5" r="2.5" fill="white"/>
<circle cx="122.5" cy="77.5" r="2.5" fill="white"/>
<circle cx="142.5" cy="77.5" r="2.5" fill="white"/>
<circle cx="162.5" cy="77.5" r="2.5" fill="white"/>
<circle cx="182.5" cy="77.5" r="2.5" fill="white"/>
<circle cx="2.5" cy="102.5" r="2.5" fill="white"/>
<circle cx="22.5" cy="102.5" r="2.5" fill="white"/>
<circle cx="42.5" cy="102.5" r="2.5" fill="white"/>
<circle cx="62.5" cy="102.5" r="2.5" fill="white"/>
<circle cx="82.5" cy="102.5" r="2.5" fill="white"/>
<circle cx="102.5" cy="102.5" r="2.5" fill="white"/>
<circle cx="122.5" cy="102.5" r="2.5" fill="white"/>
<circle cx="142.5" cy="102.5" r="2.5" fill="white"/>
<circle cx="162.5" cy="102.5" r="2.5" fill="white"/>
<circle cx="182.5" cy="102.5" r="2.5" fill="white"/>
<circle cx="202.5" cy="2.49998" r="2.5" fill="white"/>
<circle cx="222.5" cy="2.49998" r="2.5" fill="white"/>
<circle cx="202.5" cy="27.5" r="2.5" fill="white"/>
<circle cx="222.5" cy="27.5" r="2.5" fill="white"/>
<circle cx="202.5" cy="52.5" r="2.5" fill="white"/>
<circle cx="222.5" cy="52.5" r="2.5" fill="white"/>
<circle cx="202.5" cy="77.5" r="2.5" fill="white"/>
<circle cx="222.5" cy="77.5" r="2.5" fill="white"/>
<circle cx="202.5" cy="102.5" r="2.5" fill="white"/>
<circle cx="222.5" cy="102.5" r="2.5" fill="white"/>
</svg>
