<svg width="105" height="225" viewBox="0 0 105 225" fill="none" xmlns="http://www.w3.org/2000/svg">
<circle cx="102.5" cy="2.5" r="2.5" transform="rotate(90 102.5 2.5)" fill="white"/>
<circle cx="102.5" cy="22.5" r="2.5" transform="rotate(90 102.5 22.5)" fill="white"/>
<circle cx="102.5" cy="42.5" r="2.5" transform="rotate(90 102.5 42.5)" fill="white"/>
<circle cx="102.5" cy="62.5" r="2.5" transform="rotate(90 102.5 62.5)" fill="white"/>
<circle cx="102.5" cy="82.5" r="2.5" transform="rotate(90 102.5 82.5)" fill="white"/>
<circle cx="102.5" cy="102.5" r="2.5" transform="rotate(90 102.5 102.5)" fill="white"/>
<circle cx="102.5" cy="122.5" r="2.5" transform="rotate(90 102.5 122.5)" fill="white"/>
<circle cx="102.5" cy="142.5" r="2.5" transform="rotate(90 102.5 142.5)" fill="white"/>
<circle cx="102.5" cy="162.5" r="2.5" transform="rotate(90 102.5 162.5)" fill="white"/>
<circle cx="102.5" cy="182.5" r="2.5" transform="rotate(90 102.5 182.5)" fill="white"/>
<circle cx="77.5" cy="2.5" r="2.5" transform="rotate(90 77.5 2.5)" fill="white"/>
<circle cx="77.5" cy="22.5" r="2.5" transform="rotate(90 77.5 22.5)" fill="white"/>
<circle cx="77.5" cy="42.5" r="2.5" transform="rotate(90 77.5 42.5)" fill="white"/>
<circle cx="77.5" cy="62.5" r="2.5" transform="rotate(90 77.5 62.5)" fill="white"/>
<circle cx="77.5" cy="82.5" r="2.5" transform="rotate(90 77.5 82.5)" fill="white"/>
<circle cx="77.5" cy="102.5" r="2.5" transform="rotate(90 77.5 102.5)" fill="white"/>
<circle cx="77.5" cy="122.5" r="2.5" transform="rotate(90 77.5 122.5)" fill="white"/>
<circle cx="77.5" cy="142.5" r="2.5" transform="rotate(90 77.5 142.5)" fill="white"/>
<circle cx="77.5" cy="162.5" r="2.5" transform="rotate(90 77.5 162.5)" fill="white"/>
<circle cx="77.5" cy="182.5" r="2.5" transform="rotate(90 77.5 182.5)" fill="white"/>
<circle cx="52.5" cy="2.5" r="2.5" transform="rotate(90 52.5 2.5)" fill="white"/>
<circle cx="52.5" cy="22.5" r="2.5" transform="rotate(90 52.5 22.5)" fill="white"/>
<circle cx="52.5" cy="42.5" r="2.5" transform="rotate(90 52.5 42.5)" fill="white"/>
<circle cx="52.5" cy="62.5" r="2.5" transform="rotate(90 52.5 62.5)" fill="white"/>
<circle cx="52.5" cy="82.5" r="2.5" transform="rotate(90 52.5 82.5)" fill="white"/>
<circle cx="52.5" cy="102.5" r="2.5" transform="rotate(90 52.5 102.5)" fill="white"/>
<circle cx="52.5" cy="122.5" r="2.5" transform="rotate(90 52.5 122.5)" fill="white"/>
<circle cx="52.5" cy="142.5" r="2.5" transform="rotate(90 52.5 142.5)" fill="white"/>
<circle cx="52.5" cy="162.5" r="2.5" transform="rotate(90 52.5 162.5)" fill="white"/>
<circle cx="52.5" cy="182.5" r="2.5" transform="rotate(90 52.5 182.5)" fill="white"/>
<circle cx="27.5" cy="2.5" r="2.5" transform="rotate(90 27.5 2.5)" fill="white"/>
<circle cx="27.5" cy="22.5" r="2.5" transform="rotate(90 27.5 22.5)" fill="white"/>
<circle cx="27.5" cy="42.5" r="2.5" transform="rotate(90 27.5 42.5)" fill="white"/>
<circle cx="27.5" cy="62.5" r="2.5" transform="rotate(90 27.5 62.5)" fill="white"/>
<circle cx="27.5" cy="82.5" r="2.5" transform="rotate(90 27.5 82.5)" fill="white"/>
<circle cx="27.5" cy="102.5" r="2.5" transform="rotate(90 27.5 102.5)" fill="white"/>
<circle cx="27.5" cy="122.5" r="2.5" transform="rotate(90 27.5 122.5)" fill="white"/>
<circle cx="27.5" cy="142.5" r="2.5" transform="rotate(90 27.5 142.5)" fill="white"/>
<circle cx="27.5" cy="162.5" r="2.5" transform="rotate(90 27.5 162.5)" fill="white"/>
<circle cx="27.5" cy="182.5" r="2.5" transform="rotate(90 27.5 182.5)" fill="white"/>
<circle cx="2.5" cy="2.5" r="2.5" transform="rotate(90 2.5 2.5)" fill="white"/>
<circle cx="2.5" cy="22.5" r="2.5" transform="rotate(90 2.5 22.5)" fill="white"/>
<circle cx="2.5" cy="42.5" r="2.5" transform="rotate(90 2.5 42.5)" fill="white"/>
<circle cx="2.5" cy="62.5" r="2.5" transform="rotate(90 2.5 62.5)" fill="white"/>
<circle cx="2.5" cy="82.5" r="2.5" transform="rotate(90 2.5 82.5)" fill="white"/>
<circle cx="2.5" cy="102.5" r="2.5" transform="rotate(90 2.5 102.5)" fill="white"/>
<circle cx="2.5" cy="122.5" r="2.5" transform="rotate(90 2.5 122.5)" fill="white"/>
<circle cx="2.5" cy="142.5" r="2.5" transform="rotate(90 2.5 142.5)" fill="white"/>
<circle cx="2.5" cy="162.5" r="2.5" transform="rotate(90 2.5 162.5)" fill="white"/>
<circle cx="2.5" cy="182.5" r="2.5" transform="rotate(90 2.5 182.5)" fill="white"/>
<circle cx="102.5" cy="202.5" r="2.5" transform="rotate(90 102.5 202.5)" fill="white"/>
<circle cx="102.5" cy="222.5" r="2.5" transform="rotate(90 102.5 222.5)" fill="white"/>
<circle cx="77.5" cy="202.5" r="2.5" transform="rotate(90 77.5 202.5)" fill="white"/>
<circle cx="77.5" cy="222.5" r="2.5" transform="rotate(90 77.5 222.5)" fill="white"/>
<circle cx="52.5" cy="202.5" r="2.5" transform="rotate(90 52.5 202.5)" fill="white"/>
<circle cx="52.5" cy="222.5" r="2.5" transform="rotate(90 52.5 222.5)" fill="white"/>
<circle cx="27.5" cy="202.5" r="2.5" transform="rotate(90 27.5 202.5)" fill="white"/>
<circle cx="27.5" cy="222.5" r="2.5" transform="rotate(90 27.5 222.5)" fill="white"/>
<circle cx="2.5" cy="202.5" r="2.5" transform="rotate(90 2.5 202.5)" fill="white"/>
<circle cx="2.5" cy="222.5" r="2.5" transform="rotate(90 2.5 222.5)" fill="white"/>
</svg>
