<svg width="25" height="25" viewBox="0 0 25 25" fill="none" xmlns="http://www.w3.org/2000/svg">
<path d="M12.5 9.375C11.6712 9.375 10.8763 9.70424 10.2903 10.2903C9.70422 10.8763 9.37498 11.6712 9.37498 12.5C9.37498 13.3288 9.70422 14.1237 10.2903 14.7097C10.8763 15.2958 11.6712 15.625 12.5 15.625C13.3288 15.625 14.1236 15.2958 14.7097 14.7097C15.2957 14.1237 15.625 13.3288 15.625 12.5C15.625 11.6712 15.2957 10.8763 14.7097 10.2903C14.1236 9.70424 13.3288 9.375 12.5 9.375ZM12.5 7.29167C13.8813 7.29167 15.2061 7.8404 16.1828 8.81715C17.1596 9.7939 17.7083 11.1187 17.7083 12.5C17.7083 13.8813 17.1596 15.2061 16.1828 16.1828C15.2061 17.1596 13.8813 17.7083 12.5 17.7083C11.1186 17.7083 9.79388 17.1596 8.81713 16.1828C7.84038 15.2061 7.29165 13.8813 7.29165 12.5C7.29165 11.1187 7.84038 9.7939 8.81713 8.81715C9.79388 7.8404 11.1186 7.29167 12.5 7.29167ZM19.2708 7.03125C19.2708 7.37658 19.1336 7.70777 18.8894 7.95196C18.6453 8.19615 18.3141 8.33333 17.9687 8.33333C17.6234 8.33333 17.2922 8.19615 17.048 7.95196C16.8038 7.70777 16.6666 7.37658 16.6666 7.03125C16.6666 6.68591 16.8038 6.35472 17.048 6.11054C17.2922 5.86635 17.6234 5.72917 17.9687 5.72917C18.3141 5.72917 18.6453 5.86635 18.8894 6.11054C19.1336 6.35472 19.2708 6.68591 19.2708 7.03125ZM12.5 4.16667C9.9229 4.16667 9.50206 4.17396 8.30311 4.22708C7.48644 4.26562 6.93852 4.375 6.43019 4.57292C5.9781 4.74792 5.65206 4.95729 5.30519 5.30521C4.97915 5.62021 4.72847 6.00477 4.57185 6.43021C4.37394 6.94062 4.26456 7.4875 4.22706 8.30312C4.1729 9.45312 4.16665 9.85521 4.16665 12.5C4.16665 15.0771 4.17394 15.4979 4.22706 16.6969C4.2656 17.5125 4.37498 18.0615 4.57185 18.5688C4.74894 19.0219 4.95727 19.3479 5.3031 19.6938C5.65415 20.0438 5.98019 20.2531 6.4281 20.426C6.94269 20.625 7.49061 20.7354 8.30311 20.7729C9.45311 20.8271 9.85519 20.8333 12.5 20.8333C15.0771 20.8333 15.4979 20.826 16.6969 20.7729C17.5114 20.7344 18.0604 20.625 18.5687 20.4281C19.0198 20.2521 19.3479 20.0427 19.6937 19.6969C20.0448 19.3458 20.2541 19.0198 20.4271 18.5719C20.625 18.0583 20.7354 17.5094 20.7729 16.6969C20.8271 15.5469 20.8333 15.1448 20.8333 12.5C20.8333 9.92292 20.826 9.50208 20.7729 8.30312C20.7344 7.48854 20.625 6.93854 20.4271 6.43021C20.2701 6.00521 20.0198 5.62079 19.6948 5.30521C19.3799 4.97901 18.9953 4.7283 18.5698 4.57187C18.0594 4.37396 17.5114 4.26458 16.6969 4.22708C15.5469 4.17292 15.1448 4.16667 12.5 4.16667ZM12.5 2.08333C15.3302 2.08333 15.6833 2.09375 16.7937 2.14583C17.9031 2.19792 18.6583 2.37187 19.3229 2.63021C20.0104 2.89479 20.5896 3.25312 21.1687 3.83125C21.6984 4.35197 22.1083 4.98186 22.3698 5.67708C22.6271 6.34062 22.8021 7.09687 22.8541 8.20625C22.9031 9.31667 22.9166 9.66979 22.9166 12.5C22.9166 15.3302 22.9062 15.6833 22.8541 16.7937C22.8021 17.9031 22.6271 18.6583 22.3698 19.3229C22.109 20.0185 21.6991 20.6486 21.1687 21.1688C20.6479 21.6982 20.018 22.1081 19.3229 22.3698C18.6594 22.6271 17.9031 22.8021 16.7937 22.8542C15.6833 22.9031 15.3302 22.9167 12.5 22.9167C9.66977 22.9167 9.31665 22.9062 8.20623 22.8542C7.09685 22.8021 6.34165 22.6271 5.67706 22.3698C4.98157 22.1088 4.35157 21.6989 3.83123 21.1688C3.30144 20.6481 2.89157 20.0182 2.63019 19.3229C2.37185 18.6594 2.1979 17.9031 2.14581 16.7937C2.09685 15.6833 2.08331 15.3302 2.08331 12.5C2.08331 9.66979 2.09373 9.31667 2.14581 8.20625C2.1979 7.09583 2.37185 6.34167 2.63019 5.67708C2.89085 4.98144 3.30082 4.35138 3.83123 3.83125C4.35172 3.30128 4.98168 2.89138 5.67706 2.63021C6.34165 2.37187 7.09581 2.19792 8.20623 2.14583C9.31665 2.09687 9.66977 2.08333 12.5 2.08333Z" fill="white"/>
</svg>
