<svg width="25" height="25" viewBox="0 0 25 25" fill="none" xmlns="http://www.w3.org/2000/svg">
<g clip-path="url(#clip0_0_14)">
<path d="M24.7323 18.9594C23.8017 17.2002 20.57 15.2925 20.4277 15.2091C20.0124 14.9728 19.5791 14.8476 19.1736 14.8476C18.5706 14.8476 18.077 15.1238 17.7781 15.6262C17.3053 16.1917 16.7191 16.8526 16.5768 16.955C15.4756 17.7021 14.6136 17.6173 13.6598 16.6635L8.33645 11.3397C7.38867 10.3919 7.30154 9.51922 8.04354 8.42406C8.14736 8.28085 8.80826 7.69411 9.37368 7.22092C9.73425 7.00633 9.98174 6.68747 10.0902 6.29631C10.2343 5.77585 10.1282 5.16361 9.78801 4.56714C9.70783 4.42996 7.7993 1.19778 6.04093 0.267615C5.7128 0.0938175 5.34296 0.00205231 4.97219 0.00205231C4.36135 0.00205231 3.78666 0.240271 3.35471 0.671753L2.17845 1.84755C0.318117 3.70742 -0.355291 5.8157 0.175835 8.11354C0.618903 10.0286 1.9101 12.0664 4.01422 14.17L10.8294 20.9852C13.4925 23.6483 16.0313 24.9988 18.3755 24.9988C18.3755 24.9988 18.3755 24.9988 18.3759 24.9988C20.1 24.9988 21.7073 24.2661 23.1519 22.8215L24.3277 21.6457C25.0424 20.9315 25.2046 19.8516 24.7323 18.9594Z" fill="white"/>
</g>
<defs>
<clipPath id="clip0_0_14">
<rect width="25" height="25" fill="white"/>
</clipPath>
</defs>
</svg>
